<svg xmlns="http://www.w3.org/2000/svg"  viewBox="0 0 11 21" fill="none">
<path d="M1.344 13C1.288 13 1.26 12.972 1.26 12.916V3.914C1.26 3.858 1.288 3.83 1.344 3.83H1.834C1.89 3.83 1.918 3.858 1.918 3.914V12.384H5.922C5.978 12.384 6.006 12.412 6.006 12.468V12.916C6.006 12.972 5.978 13 5.922 13H1.344Z" fill="#121212"/>
<path d="M6.256 17.154C5.18267 17.154 4.366 16.8787 3.806 16.328C3.246 15.7773 2.966 14.9793 2.966 13.934V10.896C2.966 9.86 3.246 9.06667 3.806 8.516C4.37533 7.956 5.19667 7.676 6.27 7.676C6.96067 7.676 7.56267 7.802 8.076 8.054C8.59867 8.29667 8.986 8.65133 9.238 9.118C9.49933 9.57533 9.588 10.126 9.504 10.77C9.49467 10.8073 9.48067 10.8447 9.462 10.882C9.44333 10.9193 9.41067 10.938 9.364 10.938H8.496C8.40267 10.938 8.36533 10.8913 8.384 10.798C8.42133 10.1167 8.25333 9.594 7.88 9.23C7.516 8.866 6.984 8.684 6.284 8.684C5.57467 8.684 5.02867 8.87067 4.646 9.244C4.27267 9.61733 4.086 10.168 4.086 10.896V13.934C4.086 14.662 4.27267 15.2127 4.646 15.586C5.02867 15.9593 5.57467 16.146 6.284 16.146C7.00267 16.146 7.544 15.964 7.908 15.6C8.28133 15.2267 8.44 14.704 8.384 14.032C8.36533 13.9387 8.40267 13.892 8.496 13.892H9.35C9.44333 13.892 9.49467 13.9527 9.504 14.074C9.56 14.6993 9.45733 15.2453 9.196 15.712C8.944 16.1693 8.566 16.524 8.062 16.776C7.558 17.028 6.956 17.154 6.256 17.154Z" fill="#121212"/>
</svg>