<?xml version="1.0" standalone="no"?>
<!DOCTYPE svg PUBLIC "-//W3C//DTD SVG 20010904//EN"
 "http://www.w3.org/TR/2001/REC-SVG-20010904/DTD/svg10.dtd">
<svg version="1.0" xmlns="http://www.w3.org/2000/svg"
 width="319.000000pt" height="291.000000pt" viewBox="0 0 319.000000 291.000000"
 preserveAspectRatio="xMidYMid meet">

<g transform="translate(0.000000,291.000000) scale(0.100000,-0.100000)"
fill="#000000" stroke="none">
<path d="M2075 2856 c-318 -61 -623 -372 -985 -1006 -141 -248 -239 -409 -354
-583 -102 -156 -112 -168 -136 -163 -92 19 -250 28 -320 18 -153 -23 -250
-106 -250 -216 0 -99 54 -146 177 -154 150 -10 280 41 400 154 38 35 71 64 75
64 13 0 239 -72 426 -136 l192 -66 0 -118 c0 -384 197 -578 605 -597 185 -8
358 32 524 123 207 113 412 315 550 544 53 86 57 105 26 105 -12 0 -35 -28
-67 -80 -225 -361 -538 -583 -884 -627 -258 -33 -477 89 -555 307 -23 63 -38
249 -22 272 6 8 44 3 145 -22 274 -67 369 -79 628 -80 216 0 241 2 314 23 130
38 230 95 317 182 84 84 148 192 128 216 -16 19 -24 12 -60 -56 -60 -113 -151
-176 -315 -222 -70 -19 -103 -22 -304 -22 -200 0 -241 3 -375 27 -221 40 -445
96 -445 112 0 32 67 201 130 330 223 454 580 821 955 982 327 140 526 42 470
-231 -68 -330 -501 -892 -793 -1029 -144 -67 -282 -37 -282 62 0 64 92 215
177 291 57 51 163 122 215 143 34 14 58 42 58 66 0 6 -11 18 -25 27 -23 15
-27 14 -78 -15 -136 -78 -283 -233 -349 -368 -90 -186 -31 -298 157 -296 248
1 555 214 793 549 200 283 282 597 199 761 -58 113 -164 168 -322 167 -279 -4
-645 -193 -936 -485 -225 -226 -437 -561 -525 -827 -15 -45 -31 -82 -37 -82
-5 0 -100 29 -210 65 -111 35 -231 72 -267 81 -36 10 -69 21 -73 24 -5 4 21
47 56 96 91 125 210 316 386 622 344 598 559 860 796 973 173 83 328 67 400
-39 31 -45 32 -93 5 -156 -16 -35 -18 -50 -10 -66 11 -21 27 -25 47 -12 40 25
46 174 10 243 -27 51 -91 103 -145 119 -61 18 -163 20 -237 6z m-1610 -1832
c44 -9 81 -17 83 -19 10 -10 -150 -156 -197 -180 -98 -49 -225 -41 -266 18
-21 30 -19 86 5 124 47 78 167 96 375 57z"/>
</g>
</svg>
